<svg xmlns="http://www.w3.org/2000/svg" xmlns:xlink="http://www.w3.org/1999/xlink" data-name="Layer 1" viewBox="0 0 597.02 595.91" id="search-on-web"><defs><linearGradient id="a" x1="206.89" x2="209.67" y1="127.59" y2="252.01" gradientUnits="userSpaceOnUse"><stop offset="0" stop-color="#68e1fd"></stop><stop offset=".01" stop-color="#67ddf9"></stop><stop offset=".12" stop-color="#5cb3ce"></stop><stop offset=".24" stop-color="#538ea9"></stop><stop offset=".37" stop-color="#4c718b"></stop><stop offset=".5" stop-color="#465a73"></stop><stop offset=".63" stop-color="#424a63"></stop><stop offset=".79" stop-color="#404059"></stop><stop offset=".99" stop-color="#3f3d56"></stop></linearGradient><linearGradient id="c" x1="219.12" x2="221.9" y1="127.32" y2="251.74" xlink:href="#a"></linearGradient><linearGradient id="d" x1="231.36" x2="234.14" y1="127.05" y2="251.47" xlink:href="#a"></linearGradient><linearGradient id="b" x1="231.89" x2="272.9" y1="289.62" y2="289.62" gradientUnits="userSpaceOnUse"><stop offset="0" stop-color="#ecc4d7"></stop><stop offset=".42" stop-color="#efd4d1"></stop><stop offset="1" stop-color="#f2eac9"></stop></linearGradient><linearGradient id="e" x1="312.81" x2="216.8" y1="405.36" y2="366.46" gradientUnits="userSpaceOnUse"><stop offset=".17" stop-color="#00272e"></stop><stop offset="1" stop-color="#69b9eb" stop-opacity="0"></stop></linearGradient><linearGradient id="f" x1="419.01" x2="438.19" y1="131.7" y2="131.7" gradientTransform="rotate(-8.1 1660.706 1264.824)" xlink:href="#b"></linearGradient></defs><path fill="#68e1fd" d="M55.42 578.29c-24.94 12.07 51 19.11 78.61 17.34l121.22-7.74c5.24-.33 19.15-.48 15.07-3.8-20.88-17-181.99-21.74-214.9-5.8ZM554.21 461.98c-7.75 11.24-16.35 19.4-25.65 23.54-73.32 32.61-94.71-50.95-284.86 16.27a416.49 416.49 0 0 1-45.07 13.28C90.73 539.94 42.5 496.93 27.37 461.98c-6.15-14.18-6.85-27-3.87-33.49 11.26-24.4 1-64.18-20.43-178.18s73.32-151.81 147-169.72c47.22-11.47 70.22-27.23 80.65-37.07a125.68 125.68 0 0 1 42.11-26.58c106-39.55 157.48-4 220.66 46.42 13.95 11.09 28.48 22.95 44.23 34.86 82.71 62.41 69.9 286.3 16.49 363.76Z" opacity=".18"></path><path fill="#68e1fd" d="M554.21 461.98c-7.75 11.24-16.35 19.4-25.65 23.54-73.32 32.61-94.71-50.95-284.86 16.27-139.89 49.45-199.23-.34-216.33-39.81Z" opacity=".18"></path><path fill="#fff" d="M537.73 146.08v273.37a20.08 20.08 0 0 1-20.09 20.08h-415a20.09 20.09 0 0 1-20.14-20.08V146.08a20.09 20.09 0 0 1 20.09-20.07h415.05a20.08 20.08 0 0 1 20.09 20.07Z"></path><path fill="#25233a" d="M158.77 514.03c-.83 5.35-31.86 61.78-31.86 61.78 9.07 1.64 12.37 8.24 12.37 8.24h-28.1l22.23-70s.95-33.46-4.83-51.59c-3.84-12.09-3.61-26.1-3-34.1.29-4 .66-6.48.66-6.48l41.47 18.74s-8.11 68.05-8.94 73.41Z"></path><path fill="#3f3d56" d="M209.34 584.05h-28.47v-.15l-5.14-73.58s-24.06-29.28-38.06-50.71-11.6-35.52-11.6-35.52h38.3c1.94.78 4.56 8.38 6.25 12.19 7.13 16.16 23.31 49.59 24.73 55.95 4.55 20.25-1.67 81.11-1.67 81.11 8.66.82 15.66 10.71 15.66 10.71Z"></path><path fill="none" stroke="#68e1fd" stroke-miterlimit="10" stroke-width=".82" d="M138.04 256.85H441.3v25.91H138.04z"></path><path fill="#68e1fd" d="M441.3 256.53h40.1v26.59h-40.1z"></path><path fill="#3f3d56" d="M441.3 256.53h40.1v26.59h-40.1z" opacity=".31"></path><circle cx="565.72" cy="268.96" r="6.8" fill="none" stroke="#fff" stroke-miterlimit="10" stroke-width=".73" transform="rotate(-45 512.039 396.677)"></circle><path fill="#fff" d="m464.062 273.433 1.29-1.72 7.086 5.319-1.29 1.72z"></path><path fill="#68e1fd" d="M537.73 146.08v6.62H82.5v-6.62a20.09 20.09 0 0 1 20.09-20.07h415.05a20.08 20.08 0 0 1 20.09 20.07Z"></path><path fill="url(#a)" d="M211.45 141.33a4.26 4.26 0 1 1-4.26-4.26 4.25 4.25 0 0 1 4.26 4.26Z" transform="translate(-106.03 -.55)"></path><path fill="url(#c)" d="M223.7 141.33a4.26 4.26 0 1 1-4.26-4.26 4.25 4.25 0 0 1 4.26 4.26Z" transform="translate(-106.03 -.55)"></path><path fill="url(#d)" d="M235.94 141.33a4.26 4.26 0 1 1-4.26-4.26 4.25 4.25 0 0 1 4.26 4.26Z" transform="translate(-106.03 -.55)"></path><path fill="#68e1fd" d="m135.18 389.16-9.32 16.69a32.88 32.88 0 0 1-3.52-2.87c-7.25-6.67-22-24.92-7.76-53.79 0 0 6.55-17.85 10.23-25.49a11.54 11.54 0 0 1 2-3.34c2.22-1.51 8.37 68.8 8.37 68.8Z"></path><ellipse cx="272.69" cy="274.77" fill="none" stroke="#007189" stroke-miterlimit="10" stroke-width="3.29" rx="9.54" ry="18.9" transform="rotate(-34.83 218.767 443.5)"></ellipse><path fill="#007189" d="m176.49 291.32 5.74 7.94 3.02-2.26-5.81-7.44-2.95 1.76z"></path><path fill="#091240" d="m177.315 294.62 4.327-3.633 16.8 20-4.327 3.634z"></path><path fill="url(#b)" d="M263.58 262.86s2.61 6 4.81 12.39c.58 1.65 3.83 2.7 4.3 4.31.92 3.18-1.52 4.18-1.64 6-.41 6.18 1.85 12.91-8.55 16.69-9.22 3.35-5.5 18.4-5.5 18.4s-11.81 5.22-17-1.37c0 0 1.93-19.78-6.31-36.81s14.09-35.82 29.89-19.61Z" transform="translate(-106.03 -.55)"></path><path fill="#25233a" d="m132.51 315.89 1-4.88s16.35.9 18 2.44a14.64 14.64 0 0 1 2.75 3.88Z"></path><path fill="#68e1fd" d="M164.37 424.5H129.67c-5.4-.17-7.64-1.14-7.5-6.47.26-9.73 0-76.87 2.61-92 1.59-9.31 8.42-11.11 9.93-11.4h.23s10.34.89 14.63.83c4.57-.07 10.16 6.63 10.16 6.63s3.56 13.79 6.74 25.52c1.55 5.74 3 11 3.92 13.89 1.92 6.13 4.11 34.38 5.27 50.91a11.35 11.35 0 0 1-11.29 12.09Z"></path><path fill="url(#e)" d="M270.4 425.05h-10l-4-81.38 16.15 4.44c1.55 5.74 3 11 3.92 13.89 1.92 6.13 4.11 34.38 5.27 50.91a11.35 11.35 0 0 1-11.34 12.14Z" opacity=".61" transform="translate(-106.03 -.55)"></path><path fill="#3f3d56" d="m157.55 262.31-3.87-.42a8 8 0 0 1-3.46 6.15 4.84 4.84 0 0 0-2-1.8c-1.42 1.65.24 4.1.27 6.26a11 11 0 0 1-.62 3 15.67 15.67 0 0 0-.3 6.64c-1.46-.11-2.15-2.07-3.57-2.36s-2.37 1-2.72 2.23a5.71 5.71 0 0 0 4.45 6.91c.33.05.72.1.9.38a1.06 1.06 0 0 1 .1.64 25.47 25.47 0 0 1-1.46 8.18 10.87 10.87 0 0 1-5.43 6.06c-1.75.77-4.2.71-5.16-1 .15.89-.93 1.6-1.82 1.41a3.59 3.59 0 0 1-2-1.68c-2.8-4.08-3.52-9.17-5.16-13.84-1.43-4.08-3.59-7.87-5.25-11.87s-2.86-8.35-2.21-12.62a15.72 15.72 0 0 1 12.12-12.73 15.28 15.28 0 0 0 3.36-.82 31.39 31.39 0 0 0 2.72-1.75 14.88 14.88 0 0 1 6-1.5 35.43 35.43 0 0 1 6.51.13c8 .61 7.69 8.23 8.27 9.87.04.38.8 4.58.33 4.53Z"></path><path fill="url(#f)" d="M290.16 293.18a6 6 0 0 1 .55-2.22 2 2 0 0 1 1.85-1.14c1 .11 1.56 1.07 2 1.93.64 1.22 1.27 2.44 1.9 3.67 1.45-.67 3.1.49 4 1.82s1.41 2.94 2.68 3.89a4.56 4.56 0 0 1 1.06.89 2.88 2.88 0 0 1 .29 1.91l-.21 2.58c-.13 1.68-.34 3.53-1.56 4.71a7.17 7.17 0 0 1-4 1.5 11.83 11.83 0 0 1-3.84.15 11.08 11.08 0 0 1-4.7-2.59c-1.93-1.56-7.2-6.66-3.75-8.69 1.34-.79 2.07.12 3-1.44s.57-5.22.73-6.97Z" transform="translate(-106.03 -.55)"></path><path fill="#68e1fd" d="M197.6 347.32c-2.72 12-11.18 19-19.71 20.47a17.94 17.94 0 01-11.36-1.59c-10.8-5.58-22.33-34.92-21.75-44.2.28-4.44 2.18-6.51 4.82-6.56 2.88-.07 6.65 2.28 10.16 6.6s6.4 10.13 9.32 14.46a21.44 21.44 0 003.66 4.38 6.27 6.27 0 003 1.53 5.38 5.38 0 004.17-1.33c8-6.19 4.78-30.43 4.78-30.43l4.13-.24 8.46-.5s4.29 19.79.32 37.41zM261.13 223.19h-3.11v-1a1.84 1.84 0 00-.12-.85.44.44 0 00-.4-.18.52.52 0 00-.46.24 1.5 1.5 0 00-.15.75 2.22 2.22 0 00.17 1 2.54 2.54 0 001 .79 9.46 9.46 0 012.81 2.17 5 5 0 01.58 2.75 4.7 4.7 0 01-.32 2 2.52 2.52 0 01-1.24 1.1 5 5 0 01-2.15.44 4.78 4.78 0 01-2.29-.51 2.53 2.53 0 01-1.25-1.3 6.79 6.79 0 01-.29-2.23v-.84h3.06v1.56a2 2 0 00.13.93.5.5 0 00.46.21.55.55 0 00.5-.26 1.51 1.51 0 00.16-.78 2.39 2.39 0 00-.31-1.49 10.19 10.19 0 00-1.56-1.17 15.16 15.16 0 01-1.65-1.2 2.72 2.72 0 01-.68-1 6.08 6.08 0 01.11-3.85 2.64 2.64 0 011.22-1.07 5 5 0 012-.38 5.3 5.3 0 012.22.42 2.33 2.33 0 011.22 1.06 5.58 5.58 0 01.3 2.17zM271.06 219.3h5.58v2.57h-2.23v2.44h2.09v2.45h-2.09v2.83h2.45v2.58h-5.8zM292.22 219.3l1.91 12.87h-3.42l-.18-2.32h-1.2l-.2 2.32h-3.46l1.71-12.87zm-1.78 8.27q-.25-2.19-.51-5.4-.51 3.69-.64 5.4zM303.31 219.3h2.37a18.37 18.37 0 013.2.18 2.19 2.19 0 011.37.93 4.29 4.29 0 01.53 2.4 3.84 3.84 0 01-.37 2 2 2 0 01-1.44.64 2.45 2.45 0 011.34.66 2.06 2.06 0 01.43.76 12.91 12.91 0 01.08 1.9v3.4h-3.15v-4.28a2.93 2.93 0 00-.16-1.28c-.11-.16-.4-.25-.86-.25v5.81h-3.34zm3.34 2.2v2.86a1.5 1.5 0 00.79-.15c.16-.11.23-.44.23-1v-.76a1.06 1.06 0 00-.22-.8 1.21 1.21 0 00-.8-.15zM328.5 224.9h-3.35v-2.24a4 4 0 00-.11-1.21.46.46 0 00-.47-.24.5.5 0 00-.53.29 4.67 4.67 0 00-.11 1.27v6a4.33 4.33 0 00.11 1.22.49.49 0 00.5.29.47.47 0 00.49-.29 4.51 4.51 0 00.12-1.35v-1.61h3.35v.5a9.7 9.7 0 01-.29 2.83 2.86 2.86 0 01-1.24 1.47 4.3 4.3 0 01-2.39.63 4.87 4.87 0 01-2.42-.54 2.52 2.52 0 01-1.26-1.47 9.55 9.55 0 01-.31-2.83v-3.76a17.7 17.7 0 01.09-2.09 3 3 0 01.57-1.34 3.12 3.12 0 011.31-1 4.68 4.68 0 011.93-.37 4.74 4.74 0 012.44.57 2.75 2.75 0 011.26 1.42 8.61 8.61 0 01.31 2.66zM345.97 219.3v12.87h-3.35v-5.41h-1v5.41h-3.35V219.3h3.35v4.6h1v-4.6z"></path><path fill="#fff" d="M128.44 422.92a12.63 12.63 0 0 1 1.26 1.54c-5.4-.16-7.64-1.13-7.5-6.46.26-9.73 0-76.87 2.61-92 1.59-9.31 8.42-11.11 9.93-11.4h.23a30.83 30.83 0 0 0-6.53 14.9c-1.16 8.78-2.78 90.54 0 93.42ZM177.89 367.79a17.94 17.94 0 0 1-11.36-1.59c-10.8-5.58-22.33-34.92-21.75-44.2.28-4.44 2.18-6.51 4.82-6.56 0 1-4.33 11.84 8.71 34.88 8.8 15.56 17.27 16.21 19.58 17.47Z" opacity=".24"></path><path fill="#fff" d="M172.74 340.88a10.09 10.09 0 0 1-3.66-4.38 21.44 21.44 0 0 0 3.66 4.38Z"></path><path fill="#fff" d="M175.75 342.45a5.38 5.38 0 0 0 4.17-1.33c8-6.19 4.78-30.43 4.78-30.43l4.13-.24s4.06 38.34-13.08 32ZM112.69 373.45c-2.08 13.2 9.69 25.08 9.69 25.08v4.42c-7.25-6.67-22-24.92-7.76-53.79 0 0 6.55-17.85 10.23-25.49v2.31s-10.07 34.3-12.16 47.47ZM182.18 584.05a15.26 15.26 0 0 0 .44 3.1l-1.65-3.1-.08-.15-5.14-73.58s-24.06-29.28-38.06-50.71-11.6-35.52-11.6-35.52h2.79a7.05 7.05 0 0 1 .85.37s2.77 25.27 46.21 79.6c0 0 8.56 7.88 6.59 37.75-1.78 26.51-.73 37.64-.35 42.24Z" opacity=".24"></path><path fill="#fff" d="m137.78 516.81-23.16 67.24h-3.44l22.23-70s.95-33.46-4.83-51.59c-3.84-12.09-3.61-26.1-3-34.1l4.14 16a116.55 116.55 0 0 0 5.25 25.9c4.35 12.74 2.81 46.55 2.81 46.55Z" opacity=".24"></path></svg>